first trial
nRows=13
nColumns=38

# SIMM Motion File Header:
name Sujet_02_velo_60.mvnx
datacolumns 38
datarows 13
otherdata 1
range 15.6150 15.8160
endheader
time pelvis_tilt  pelvis_list  pelvis_rotation  pelvis_tx  pelvis_ty  pelvis_tz  hip_flexion_r  hip_adduction_r  hip_rotation_r  knee_angle_r  ankle_angle_r  subtalar_angle_r  mtp_angle_r  hip_flexion_l  hip_adduction_l  hip_rotation_l  knee_angle_l  ankle_angle_l  subtalar_angle_l  mtp_angle_l  lumbar_extension  lumbar_bending  lumbar_rotation  arm_flex_r  arm_add_r  arm_rot_r  elbow_flex_r  pro_sup_r  wrist_flex_r  wrist_dev_r  arm_flex_l  arm_add_l  arm_rot_l  elbow_flex_l  pro_sup_l  wrist_flex_l  wrist_dev_l
15.6150	6.7057	-0.0335	89.5022	-2.0312	8.3836	8.1899	47.1933	-3.2204	-0.0271	91.8370	-0.5226	-0.5155	0.0000	42.8554	2.1981	-4.7475	57.5270	-7.3305	-6.0478	0.0000	-25.7537	4.3605	-0.2151	87.3280	-11.9988	48.4369	3.8095	94.1016	-17.0158	-5.4252	83.6592	4.5927	35.5450	0.0489	98.0236	-23.3278	-11.5495	
15.6320	6.4708	0.0645	89.3891	-2.0325	8.3894	8.1970	48.0299	-3.2759	0.0140	91.5130	-1.8804	-0.5761	0.0000	40.7159	1.9104	-5.2586	54.5160	-8.1857	-5.5933	-0.0000	-25.5707	4.3670	-0.2083	87.3703	-11.9529	48.5954	3.9726	94.0980	-17.0195	-5.3419	83.7079	4.5784	35.4363	0.1088	97.9089	-23.4603	-11.6406	
15.6490	6.2343	0.1536	89.2714	-2.0338	8.3954	8.2044	48.7776	-3.2665	0.1489	91.1172	-2.9291	-0.7634	-0.0000	38.7524	1.6597	-5.6896	51.8517	-9.1500	-5.3064	-0.0000	-25.4052	4.3638	-0.1968	87.4512	-11.9036	48.7350	4.0843	94.0714	-17.0210	-5.2545	83.7445	4.5924	35.3302	0.1428	97.7656	-23.5319	-11.6749	
15.6650	5.9791	0.2445	89.1327	-2.0350	8.4013	8.2124	49.2493	-3.1659	0.4548	90.4552	-3.7561	-1.1041	-0.0000	37.0264	1.4414	-6.0298	49.5696	-10.2661	-5.2242	0.0000	-25.2520	4.3392	-0.1794	87.6448	-11.8377	48.8334	4.0994	94.0297	-17.0159	-5.1606	83.7661	4.6468	35.2327	0.1252	97.5815	-23.5133	-11.6464	
15.6820	5.7223	0.3263	88.9898	-2.0362	8.4074	8.2207	49.6308	-3.0010	0.8535	89.7202	-4.2782	-1.5698	-0.0000	35.4779	1.2456	-6.2855	47.6319	-11.4951	-5.3061	0.0000	-25.1164	4.3048	-0.1574	87.8769	-11.7682	48.9128	4.0631	93.9654	-17.0086	-5.0628	83.7763	4.7293	35.1378	0.0816	97.3689	-23.4332	-11.5605	
15.6990	5.5535	0.3537	88.8909	-2.0371	8.4143	8.2283	50.4366	-2.8274	1.1696	89.5101	-4.1666	-2.1134	0.0000	34.0183	1.0484	-6.3830	46.1672	-12.5556	-5.6118	-0.0000	-25.0362	4.2945	-0.1334	88.0036	-11.7149	49.0172	4.0350	93.8628	-17.0021	-4.9670	83.7836	4.8269	35.0653	0.0211	97.1259	-23.3290	-11.4232	
15.7160	5.5289	0.2834	88.8701	-2.0375	8.4226	8.2343	52.0716	-2.6596	1.3306	90.3720	-3.0067	-2.8003	-0.0000	32.5415	0.8083	-6.3118	45.1726	-13.3516	-6.2862	-0.0000	-25.0442	4.3344	-0.1030	87.9604	-11.6851	49.1505	4.0392	93.7096	-16.9823	-4.8566	83.7925	4.9430	35.0254	-0.0664	96.8431	-23.2167	-11.2304	
15.7320	5.5924	0.1592	88.8931	-2.0376	8.4318	8.2395	54.1317	-2.4860	1.4012	91.7572	-1.1952	-3.6068	0.0000	31.1560	0.5472	-6.0837	44.6424	-13.9764	-7.1673	0.0000	-25.1078	4.3982	-0.0705	87.8119	-11.6720	49.3093	4.0517	93.5181	-16.9636	-4.7485	83.7985	5.0743	35.0081	-0.1709	96.5294	-23.0793	-10.9853	
15.7490	5.6648	0.0663	88.9067	-2.0378	8.4407	8.2446	55.9189	-2.3155	1.4147	92.6231	0.3756	-4.3315	0.0000	30.0942	0.3366	-5.6543	44.7094	-14.4365	-7.8628	-0.0000	-25.1666	4.4407	-0.0516	87.6074	-11.6739	49.5265	4.0597	93.3087	-16.9923	-4.6993	83.7966	5.1975	35.0030	-0.2523	96.2104	-22.9056	-10.7053	
15.7650	5.7223	0.0446	88.8910	-2.0383	8.4490	8.2501	57.2120	-2.1450	1.3495	92.5808	1.3346	-4.8466	-0.0000	29.4650	0.2148	-4.8480	45.5091	-14.7095	-8.2123	0.0000	-25.2029	4.4408	-0.0537	87.3328	-11.7162	49.8786	4.0630	93.0571	-17.1112	-4.7586	83.7877	5.3188	34.9975	-0.2859	95.8779	-22.6492	-10.3455	
15.7820	5.7888	0.0543	88.8656	-2.0390	8.4571	8.2557	58.2324	-1.9779	1.2319	92.0238	2.0471	-5.2692	-0.0000	29.1595	0.1467	-3.8324	46.9151	-14.8209	-8.3890	-0.0000	-25.2344	4.4197	-0.0694	87.0028	-11.7733	50.2894	4.0627	92.7878	-17.2767	-4.8760	83.7708	5.4321	35.0040	-0.2961	95.5402	-22.3566	-9.9509	
15.7990	5.8560	0.0619	88.8363	-2.0397	8.4650	8.2610	58.9457	-1.8235	1.1721	91.0833	2.7127	-5.7262	-0.0000	29.0819	0.1018	-3.0751	48.6776	-14.8555	-8.5115	-0.0000	-25.2541	4.3964	-0.0921	86.7088	-11.7663	50.5631	4.0464	92.5942	-17.4054	-4.9586	83.7377	5.4956	35.0496	-0.3162	95.2477	-22.1562	-9.6743	
15.8160	5.9395	0.0586	88.8148	-2.0403	8.4727	8.2660	59.3098	-1.7011	1.2476	89.6536	3.3421	-6.3006	0.0000	29.2040	0.0847	-2.7915	50.7772	-14.8329	-8.6365	0.0000	-25.2526	4.3785	-0.1294	86.4704	-11.6458	50.5953	4.0005	92.5240	-17.4624	-4.9616	83.6384	5.4885	35.1666	-0.3666	94.9964	-22.1056	-9.5833	
